<?xml version="1.0" encoding="UTF-8" standalone="no"?>
<svg
   xmlns:dc="http://purl.org/dc/elements/1.1/"
   xmlns:cc="http://creativecommons.org/ns#"
   xmlns:rdf="http://www.w3.org/1999/02/22-rdf-syntax-ns#"
   xmlns:svg="http://www.w3.org/2000/svg"
   xmlns="http://www.w3.org/2000/svg"
   xmlns:sodipodi="http://sodipodi.sourceforge.net/DTD/sodipodi-0.dtd"
   xmlns:inkscape="http://www.inkscape.org/namespaces/inkscape"
   width="210mm"
   height="297mm"
   viewBox="0 0 210 297"
   version="1.1"
   id="svg8"
   inkscape:version="1.0.2-2 (e86c870879, 2021-01-15)"
   sodipodi:docname="NXP.svg">
  <defs
     id="defs2" />
  <sodipodi:namedview
     id="base"
     pagecolor="#ffffff"
     bordercolor="#666666"
     borderopacity="1.0"
     inkscape:pageopacity="0.0"
     inkscape:pageshadow="2"
     inkscape:zoom="1"
     inkscape:cx="-227.65536"
     inkscape:cy="934.02194"
     inkscape:document-units="mm"
     inkscape:current-layer="layer1"
     inkscape:document-rotation="0"
     showgrid="false"
     showguides="true"
     inkscape:guide-bbox="true"
     inkscape:window-width="2560"
     inkscape:window-height="1377"
     inkscape:window-x="2552"
     inkscape:window-y="-8"
     inkscape:window-maximized="1" />
  <metadata
     id="metadata5">
    <rdf:RDF>
      <cc:Work
         rdf:about="">
        <dc:format>image/svg+xml</dc:format>
        <dc:type
           rdf:resource="http://purl.org/dc/dcmitype/StillImage" />
        <dc:title></dc:title>
      </cc:Work>
    </rdf:RDF>
  </metadata>
  <g
     inkscape:label="Ebene 1"
     inkscape:groupmode="layer"
     id="layer1">
    <path
       id="circle1697"
       style="fill:#000000;fill-opacity:1;stroke:none;stroke-width:9.1695;stroke-linejoin:round;stroke-miterlimit:4;stroke-dasharray:none;stroke-opacity:1"
       d="M 196.25,148.5 A 91.25,91.25 0 0 1 105,239.75 91.25,91.25 0 0 1 13.75,148.5 91.25,91.25 0 0 1 105,57.25 91.25,91.25 0 0 1 196.25,148.5 Z"
       inkscape:export-xdpi="106.6"
       inkscape:export-ydpi="106.6" />
    <path
       id="circle1695"
       style="fill:#ffffff;fill-opacity:1;stroke:none;stroke-width:8.91828;stroke-linejoin:round;stroke-miterlimit:4;stroke-dasharray:none;stroke-opacity:1"
       d="M 193.75,148.5 A 88.75,88.75 0 0 1 105,237.25 88.75,88.75 0 0 1 16.25,148.5 88.75,88.75 0 0 1 105,59.75 88.75,88.75 0 0 1 193.75,148.5 Z" />
    <path
       id="circle1693"
       style="fill:#000000;fill-opacity:1;stroke:none;stroke-width:3.34122;stroke-linejoin:round;stroke-miterlimit:4;stroke-dasharray:none;stroke-opacity:1"
       d="M 138.25,148.5 A 33.25,33.25 0 0 1 105,181.75 33.25,33.25 0 0 1 71.75,148.5 33.25,33.25 0 0 1 105,115.25 33.25,33.25 0 0 1 138.25,148.5 Z" />
    <path
       id="path1687"
       style="fill:#ffffff;fill-opacity:1;stroke:none;stroke-width:3.09;stroke-linejoin:round;stroke-miterlimit:4;stroke-dasharray:none;stroke-opacity:1"
       d="M 135.75,148.5 A 30.75,30.75 0 0 1 105,179.25 30.75,30.75 0 0 1 74.25,148.5 30.75,30.75 0 0 1 105,117.75 30.75,30.75 0 0 1 135.75,148.5 Z" />
    <rect
       style="fill:#ffffff;fill-opacity:1;stroke:none;stroke-width:1.545;stroke-linejoin:round;stroke-miterlimit:4;stroke-dasharray:none;stroke-opacity:1"
       id="rect1285-5-8"
       width="122"
       height="122"
       x="-295.23502"
       y="-65.815033"
       inkscape:export-xdpi="106.59673"
       inkscape:export-ydpi="106.59673" />
    <rect
       style="fill:#ffffff;fill-opacity:1;stroke:none;stroke-width:1.545;stroke-linejoin:round;stroke-miterlimit:4;stroke-dasharray:none;stroke-opacity:1"
       id="rect1285-5"
       width="122"
       height="122"
       x="-127.375"
       y="100"
       inkscape:export-xdpi="106.59673"
       inkscape:export-ydpi="106.59673" />
    <rect
       style="fill:#ffffff;fill-opacity:1;stroke:none;stroke-width:1.545;stroke-linejoin:round;stroke-miterlimit:4;stroke-dasharray:none;stroke-opacity:1"
       id="rect1285-9"
       width="122"
       height="122"
       x="69.25"
       y="-120"
       inkscape:export-xdpi="106.59672"
       inkscape:export-ydpi="106.59672" />
    <rect
       style="fill:#ffffff;fill-opacity:1;stroke:none;stroke-width:1.545;stroke-linejoin:round;stroke-miterlimit:4;stroke-dasharray:none;stroke-opacity:1"
       id="rect1285"
       width="122"
       height="122"
       x="-30.75"
       y="-120"
       inkscape:export-xdpi="106.59672"
       inkscape:export-ydpi="106.59672" />
    <rect
       style="fill:#ffffff;fill-opacity:1;stroke:none;stroke-width:0.105304;stroke-linejoin:round"
       id="rect857"
       width="60.5"
       height="122"
       x="3.6224183e-06"
       y="-120" />
    <path
       style="fill:#000000;fill-opacity:1;stroke:none;stroke-width:0.264583px;stroke-linecap:butt;stroke-linejoin:miter;stroke-opacity:1"
       d="M 0,-120 V 2.0000047 H 2.5 V -120 Z"
       id="path835"
       sodipodi:nodetypes="ccccc" />
    <path
       style="fill:#000000;fill-opacity:1;stroke:none;stroke-width:0.264583px;stroke-linecap:butt;stroke-linejoin:miter;stroke-opacity:1"
       d="M 58,-120 V 2.0000047 h 2.5 V -120 Z"
       id="path835-9"
       sodipodi:nodetypes="ccccc" />
    <rect
       style="fill:#ffffff;fill-opacity:1;stroke:none;stroke-width:0.105304;stroke-linejoin:round"
       id="rect857-8"
       width="60.5"
       height="122"
       x="100"
       y="-120" />
    <path
       style="fill:#000000;fill-opacity:1;stroke:none;stroke-width:0.264583px;stroke-linecap:butt;stroke-linejoin:miter;stroke-opacity:1"
       d="M 100,-119.99999 V 2 h 2.5 v -121.99999 z"
       id="path833-3"
       sodipodi:nodetypes="ccccc" />
    <path
       style="fill:#000000;fill-opacity:1;stroke:none;stroke-width:0.264583px;stroke-linecap:butt;stroke-linejoin:miter;stroke-opacity:1"
       d="M 100,-119.99999 V 2 h 2.5 v -121.99999 z"
       id="path835-5"
       sodipodi:nodetypes="ccccc" />
    <path
       style="fill:#000000;fill-opacity:1;stroke:none;stroke-width:0.264583px;stroke-linecap:butt;stroke-linejoin:miter;stroke-opacity:1"
       d="M 158.00001,-119.99999 V 2 h 2.5 v -121.99999 z"
       id="path835-9-3"
       sodipodi:nodetypes="ccccc" />
    <path
       style="fill:#000000;fill-opacity:1;stroke:none;stroke-width:0.0757498px;stroke-linecap:butt;stroke-linejoin:miter;stroke-opacity:1"
       d="m 116.50001,-60.249997 v 2.5 h 10 v -2.5 z"
       id="path835-9-3-7"
       sodipodi:nodetypes="ccccc" />
    <path
       style="fill:#000000;fill-opacity:1;stroke:none;stroke-width:0.0757498px;stroke-linecap:butt;stroke-linejoin:miter;stroke-opacity:1"
       d="m 134.00001,-60.249997 v 2.5 h 10 v -2.5 z"
       id="path835-9-3-7-3"
       sodipodi:nodetypes="ccccc" />
    <path
       style="fill:#ffffff;fill-opacity:1;stroke:none;stroke-width:0.264583px;stroke-linecap:butt;stroke-linejoin:miter;stroke-opacity:1"
       d="m -98.75,100.00037 6.333772,30.48519 -6.514692,30.83622 6.681735,30.46873 -6.500815,30.20985 h 58.000001 l 6.749997,-30.5 -6.398895,-30.44552 6.681738,-31.53781 -7.032842,-29.51666 z"
       id="path1086"
       sodipodi:nodetypes="ccccccccccc" />
    <path
       style="fill:none;stroke:#000000;stroke-width:2.5;stroke-linecap:butt;stroke-linejoin:miter;stroke-miterlimit:4;stroke-dasharray:none;stroke-opacity:1"
       d="m -98.75,100.00037 c 0.005,16.85588 6.749999,18.61682 6.749999,30.5 4.35e-4,12.38446 -6.749999,14.16808 -6.749999,30.5 0,16.52298 6.749999,18.39075 6.749999,30.5 0,11.89668 -6.749999,12.8644 -6.749999,30.5"
       id="path951"
       sodipodi:nodetypes="ccccc" />
    <path
       id="path951-6-6"
       style="fill:none;stroke:#000000;stroke-width:2.5;stroke-linecap:butt;stroke-linejoin:miter;stroke-miterlimit:4;stroke-dasharray:none;stroke-opacity:1"
       d="m -34.000001,191.50005 c -0.005,16.85588 -6.749997,18.61682 -6.749997,30.5 m -3e-6,-122 c -4.35e-4,12.38446 6.75,14.16808 6.75,30.5 0,16.52298 -6.75,18.39075 -6.75,30.5 0,11.89668 6.75,12.8644 6.75,30.5"
       sodipodi:nodetypes="cccssc" />
    <path
       style="fill:#ffffff;fill-opacity:1;stroke:none;stroke-width:0.264583px;stroke-linecap:butt;stroke-linejoin:miter;stroke-opacity:1"
       d="m -295.23502,25.184967 v -60.25 h 30.75 v -30.75 h 30.25 v 122 h -30.25 v -30.75 z"
       id="path1110"
       sodipodi:nodetypes="ccccccccc" />
    <path
       style="fill:#000000;fill-opacity:1;stroke:none;stroke-width:0.264583px;stroke-linecap:butt;stroke-linejoin:miter;stroke-opacity:1"
       d="m -264.48502,-65.815033 v 30.75 h -30.75 v 2.5 h 33.25 v -33.25 z"
       id="path1088"
       sodipodi:nodetypes="ccccccc" />
    <path
       style="fill:#000000;fill-opacity:1;stroke:none;stroke-width:0.264583px;stroke-linecap:butt;stroke-linejoin:miter;stroke-opacity:1"
       d="m -264.48502,56.184967 v -30.75 h -30.75 v -2.5 h 33.25 v 33.25 z"
       id="path1088-0"
       sodipodi:nodetypes="ccccccc" />
    <path
       id="circle1695-0"
       style="fill:#ffb9b9;fill-opacity:1;stroke:none;stroke-width:8.91828;stroke-linejoin:round;stroke-miterlimit:4;stroke-dasharray:none;stroke-opacity:1"
       d="m 449.94223,-168.05403 a 88.75,88.75 0 0 1 -88.75,88.750003 88.75,88.75 0 0 1 -88.75001,-88.750003 88.75,88.75 0 0 1 88.75001,-88.75 88.75,88.75 0 0 1 88.75,88.75 z" />
    <path
       style="fill:#fbfbfb;fill-opacity:1;stroke:none;stroke-width:0.264583px;stroke-linecap:butt;stroke-linejoin:miter;stroke-opacity:1"
       d="m -234.23502,-65.815033 v 122 h 2.5 v -122 z"
       id="path835-96"
       sodipodi:nodetypes="ccccc" />
  </g>
</svg>
